# Blender 3.5.0
# www.blender.org
mtllib Tower.mtl.mtl
o Tower.2
v 0.000000 0.004717 0.137116
v -0.000000 0.005705 -0.142025
v -0.000000 -0.032337 -0.143507
v -0.000000 -0.033819 -0.137084
v -0.000000 -0.116326 -0.137578
v -0.000000 -0.113856 -0.129673
v -0.000000 -0.105951 -0.120286
v -0.000000 -0.092611 -0.119792
v -0.000000 -0.112868 -0.107935
v -0.000000 -0.110891 -0.100030
v -0.000000 -0.258119 -0.100030
v -0.000000 -0.262566 -0.111887
v -0.000000 -0.311971 -0.117816
v -0.000000 -0.313948 -0.167715
v -0.000000 -0.386573 -0.211686
v -0.000000 -0.406336 -0.211192
v -0.000000 -0.402877 0.215177
v -0.000000 -0.381633 0.216165
v -0.000000 -0.311971 0.167747
v -0.000000 -0.311477 0.125259
v -0.000000 -0.281340 0.112413
v -0.000000 -0.258119 0.111919
v -0.000000 -0.259108 0.103520
v 0.000000 -0.097058 0.102532
v 0.000000 -0.101998 0.111425
v 0.000000 -0.083718 0.119824
v 0.000000 -0.105457 0.135140
v 0.000000 -0.033325 0.138598
v 0.000000 -0.027890 0.145515
v 0.000000 -0.013069 0.144527
v 0.000000 -0.007140 0.142550
v 0.000000 0.002741 0.143044
v 0.029917 0.004717 0.137116
v 0.029917 0.005705 -0.142025
v 0.029917 -0.032337 -0.143507
v 0.029917 -0.033819 -0.137084
v 0.029917 -0.116326 -0.137578
v 0.029917 -0.113856 -0.129673
v 0.029917 -0.105951 -0.120286
v 0.029917 -0.092611 -0.119792
v 0.029917 -0.112868 -0.107935
v 0.029917 -0.110891 -0.100030
v 0.029917 -0.258119 -0.100030
v 0.029917 -0.262566 -0.111887
v 0.029917 -0.311971 -0.117816
v 0.029917 -0.313948 -0.167715
v 0.029917 -0.386573 -0.211686
v 0.029917 -0.406336 -0.211192
v 0.029917 -0.402877 0.215177
v 0.029917 -0.381633 0.216165
v 0.029917 -0.311971 0.167747
v 0.029917 -0.311477 0.125259
v 0.029917 -0.281340 0.112413
v 0.029917 -0.258119 0.111919
v 0.029917 -0.259108 0.103520
v 0.029917 -0.097058 0.102532
v 0.029917 -0.101998 0.111425
v 0.029917 -0.083718 0.119824
v 0.029917 -0.105457 0.135140
v 0.029917 -0.033325 0.138598
v 0.029917 -0.027890 0.145515
v 0.029917 -0.013069 0.144527
v 0.029917 -0.007140 0.142550
v 0.029917 0.002741 0.143044
vn -1.0000 -0.0000 -0.0000
vn 1.0000 -0.0000 -0.0000
vn -0.0000 0.0213 0.9998
vn -0.0000 -0.5052 -0.8630
vn -0.0000 0.9932 -0.1168
vn -0.0000 -0.9701 0.2425
vn -0.0000 0.0061 1.0000
vn -0.0000 -0.0000 -1.0000
vn -0.0000 -0.8742 -0.4856
vn -0.0000 0.9363 -0.3511
vn -0.0000 -0.4175 0.9087
vn -0.0000 0.1191 -0.9929
vn -0.0000 -0.5760 -0.8175
vn -0.0000 0.9992 -0.0396
vn -0.0000 -0.0479 0.9989
vn -0.0000 0.5179 -0.8554
vn -0.0000 1.0000 0.0035
vn -0.0000 -0.7863 0.6178
vn -0.0000 -0.0250 -0.9997
vn -0.0000 0.0389 -0.9992
vn -0.0000 0.0665 0.9978
vn -0.0000 -1.0000 0.0081
vn -0.0000 -0.9744 -0.2249
vn -0.0000 0.3162 0.9487
vn -0.0000 -0.0465 0.9989
vn -0.0000 0.0060 -1.0000
vn -0.0000 -0.0499 0.9988
vn -0.0000 0.5707 0.8211
vn -0.0000 -0.9545 0.2983
vn -0.0000 0.9487 0.3162
vn -0.0000 0.9999 0.0116
vn -0.0000 -0.7649 0.6441
vn -0.0000 0.3921 0.9199
vn -0.0000 -0.0370 0.9993
vt 0.362884 0.504717
vt 0.642025 0.505705
vt 0.643507 0.467663
vt 0.637084 0.466181
vt 0.637578 0.383674
vt 0.629673 0.386144
vt 0.620286 0.394049
vt 0.619792 0.407389
vt 0.607935 0.387132
vt 0.600030 0.389109
vt 0.600030 0.241881
vt 0.611887 0.237434
vt 0.617816 0.188029
vt 0.667715 0.186052
vt 0.711686 0.113426
vt 0.711192 0.093664
vt 0.284823 0.097123
vt 0.283835 0.118367
vt 0.332253 0.188029
vt 0.374741 0.188523
vt 0.387587 0.218660
vt 0.388081 0.241881
vt 0.396480 0.240892
vt 0.397468 0.402942
vt 0.388575 0.398002
vt 0.380176 0.416282
vt 0.364860 0.394543
vt 0.361402 0.466675
vt 0.354485 0.472110
vt 0.355473 0.486931
vt 0.357450 0.492860
vt 0.356956 0.502741
vt 0.362884 0.504717
vt 0.642025 0.505705
vt 0.643507 0.467663
vt 0.637084 0.466181
vt 0.637578 0.383674
vt 0.629673 0.386144
vt 0.620286 0.394049
vt 0.619792 0.407389
vt 0.607935 0.387132
vt 0.600030 0.389109
vt 0.600030 0.241881
vt 0.611887 0.237434
vt 0.617816 0.188029
vt 0.667715 0.186052
vt 0.711686 0.113426
vt 0.711192 0.093664
vt 0.284823 0.097123
vt 0.283835 0.118367
vt 0.332253 0.188029
vt 0.374741 0.188523
vt 0.387587 0.218660
vt 0.388081 0.241881
vt 0.396480 0.240892
vt 0.397468 0.402942
vt 0.388575 0.398002
vt 0.380176 0.416282
vt 0.364860 0.394543
vt 0.361402 0.466675
vt 0.354485 0.472110
vt 0.355473 0.486931
vt 0.357450 0.492860
vt 0.356956 0.502741
s 0
usemtl Tower.2
f 18/18/1 19/19/1 20/20/1 21/21/1 22/22/1 23/23/1 24/24/1 25/25/1 26/26/1 27/27/1 28/28/1 29/29/1 30/30/1 31/31/1 32/32/1 1/1/1 2/2/1 3/3/1 4/4/1 5/5/1 6/6/1 7/7/1 8/8/1 9/9/1 10/10/1 11/11/1 12/12/1 13/13/1 14/14/1 15/15/1 16/16/1 17/17/1
f 50/50/2 49/49/2 48/48/2 47/47/2 46/46/2 45/45/2 44/44/2 43/43/2 42/42/2 41/41/2 40/40/2 39/39/2 38/38/2 37/37/2 36/36/2 35/35/2 34/34/2 33/33/2 64/64/2 63/63/2 62/62/2 61/61/2 60/60/2 59/59/2 58/58/2 57/57/2 56/56/2 55/55/2 54/54/2 53/53/2 52/52/2 51/51/2
f 22/22/3 21/21/3 53/53/3 54/54/3
f 9/9/4 8/8/4 40/40/4 41/41/4
f 23/23/5 22/22/5 54/54/5 55/55/5
f 10/10/6 9/9/6 41/41/6 42/42/6
f 24/24/7 23/23/7 55/55/7 56/56/7
f 11/11/8 10/10/8 42/42/8 43/43/8
f 25/25/9 24/24/9 56/56/9 57/57/9
f 12/12/10 11/11/10 43/43/10 44/44/10
f 26/26/11 25/25/11 57/57/11 58/58/11
f 13/13/12 12/12/12 44/44/12 45/45/12
f 27/27/13 26/26/13 58/58/13 59/59/13
f 14/14/14 13/13/14 45/45/14 46/46/14
f 28/28/15 27/27/15 59/59/15 60/60/15
f 15/15/16 14/14/16 46/46/16 47/47/16
f 2/2/17 1/1/17 33/33/17 34/34/17
f 29/29/18 28/28/18 60/60/18 61/61/18
f 16/16/19 15/15/19 47/47/19 48/48/19
f 3/3/20 2/2/20 34/34/20 35/35/20
f 30/30/21 29/29/21 61/61/21 62/62/21
f 17/17/22 16/16/22 48/48/22 49/49/22
f 4/4/23 3/3/23 35/35/23 36/36/23
f 31/31/24 30/30/24 62/62/24 63/63/24
f 18/18/25 17/17/25 49/49/25 50/50/25
f 5/5/26 4/4/26 36/36/26 37/37/26
f 32/32/27 31/31/27 63/63/27 64/64/27
f 19/19/28 18/18/28 50/50/28 51/51/28
f 6/6/29 5/5/29 37/37/29 38/38/29
f 1/1/30 32/32/30 64/64/30 33/33/30
f 20/20/31 19/19/31 51/51/31 52/52/31
f 7/7/32 6/6/32 38/38/32 39/39/32
f 21/21/33 20/20/33 52/52/33 53/53/33
f 8/8/34 7/7/34 39/39/34 40/40/34
